<?xml version="1.0" encoding="UTF-8"?>
<svg id="post_01" xmlns="http://www.w3.org/2000/svg" viewBox="0 0 1200 900">
  <defs>
    <style>
      .cls-1, .cls-2 {
        fill: #c61a1a;
      }

      .cls-2 {
        font-family: Bahiana-Regular, Bahiana;
        font-size: 46.48331px;
      }

      .cls-3 {
        fill: #f9e9e9;
      }
    </style>
  </defs>
  <rect id="background" class="cls-3" width="1200" height="900"/>
  <g>
    <path class="cls-1" d="M402.32764,129.66553c2.30176,1.28467,3.4541,2.8125,3.4541,4.5835v37.46338c0,.97559-.33203,2.19189-.99658,3.65332-.66406,1.46143-2.01562,2.83545-4.05176,4.11816-2.03857,1.28516-4.91553,1.92627-8.63525,1.92627h-7.04102v40.65186h-7.70508v-88.87598l-2.92285-1.59424v-3.85254h19.396c3.36475,0,6.19824.64355,8.50244,1.92627ZM387.38184,173.24023c.30957.22168.68506.33203,1.12939.33203l5.7124-1.32861c.53174,0,.79736-.26562.79736-.79688l1.32812-33.47803c-.08887-1.1499-.57666-2.14648-1.46094-2.98926-.88672-.84082-2.25879-1.26221-4.11865-1.26221h-2.2583c-1.06299,0-1.59424.31152-1.59424.93018v37.86182c0,.26562.15381.51074.46484.73096Z"/>
    <path class="cls-1" d="M447.62744,222.06201h-5.8457l-4.78223-35.33789-10.62793,5.04834-2.92285,30.28955h-8.23682l5.97852-94.32275h20.98975l5.44727,94.32275ZM434.4751,133.31885l-5.7124,1.32861c-.53125.26562-.79736.70996-.79736,1.32861v46.7627c0,.44434.26611.66406.79736.66406l4.91553-.79688c.53125,0,.79688-.26562.79688-.79736l.79736-47.69287c0-.53125-.26611-.79688-.79736-.79688Z"/>
    <path class="cls-1" d="M464.1001,128.1377c3.63037-.26562,7.21729-.39844,10.76074-.39844h5.7124c1.41553,0,2.56787.53125,3.4541,1.59424.88428,1.0625,1.37207,2.43701,1.46143,4.11816l1.32861,38.26074-5.97852,7.83789,10.62793,39.58887-2.52393,2.92285h-7.83838l-6.7749-41.31592-6.77539.66406-2.79004,40.65186h-6.11084v-92.86133c0-.44238,1.81396-.79736,5.44678-1.06299ZM476.98633,170.91504c.53125,0,.79736-.26562.79736-.79688v-33.07959l-1.99316-1.99268-9.1665.93018.39844,35.4707,9.96387-.53174Z"/>
    <path class="cls-1" d="M528.13135,222.06201h-7.70508l-3.4541-36.93213h-6.77539l-6.11133,36.93213h-6.24365l5.97803-94.32275h24.31152v94.32275ZM518.96484,131.99023h-5.7124c-.53174,0-.79736.26562-.79736.79736v45.43408c0,.44434.26562.66455.79736.66455h5.7124c.53125,0,.79688-.26562.79688-.79736v-45.30127c0-.53174-.26562-.79736-.79688-.79736Z"/>
    <path class="cls-1" d="M562.40381,224.71875v-96.97949h11.95654l6.9082,50.2168h.79688l6.24414-52.87402h12.88623v96.97998h-8.76807l2.92285-87.81299h-.53174l-11.55762,63.76709h-3.98535l-9.43262-56.99219h-.53125v83.69482h-6.9082Z"/>
    <path class="cls-1" d="M641.71338,222.06201h-5.8457l-4.78223-35.33789-10.62793,5.04834-2.92285,30.28955h-8.23682l5.97852-94.32275h20.98975l5.44727,94.32275ZM628.56104,133.31885l-5.7124,1.32861c-.53125.26562-.79736.70996-.79736,1.32861v46.7627c0,.44434.26611.66406.79736.66406l4.91553-.79688c.53125,0,.79688-.26562.79688-.79736l.79736-47.69287c0-.53125-.26611-.79688-.79736-.79688Z"/>
    <path class="cls-1" d="M678.64502,129.59912l.66455,8.36963h-11.69092v84.09326h-11.29199l2.65674-81.70215-9.56494-3.18848,1.72705-9.43213,27.49951,1.85986Z"/>
    <path class="cls-1" d="M716.37354,222.06201h-7.70508l-3.4541-36.93213h-6.77539l-6.11133,36.93213h-6.24365l5.97803-94.32275h24.31152v94.32275ZM707.20703,131.99023h-5.7124c-.53174,0-.79736.26562-.79736.79736v45.43408c0,.44434.26562.66455.79736.66455h5.7124c.53125,0,.79688-.26562.79688-.79736v-45.30127c0-.53174-.26562-.79736-.79688-.79736Z"/>
    <path class="cls-1" d="M737.36182,222.06201h-7.70508v-88.87598l-2.92285-1.59424v-3.85254h20.72461c3.36475,0,6.17725.64355,8.43604,1.92627,2.2583,1.28467,3.43115,2.8125,3.52002,4.5835l-1.32812,36.79883c0,1.32861-.59814,2.9458-1.79346,4.84912-1.1958,1.90576-3.3877,3.30029-6.57617,4.18457l7.83789,14.61377,2.79004,27.3667-9.69775.39844-2.12598-26.03809-7.30664-15.67627h-3.85254v41.31592ZM739.68652,171.91162c.30957.22217.68506.33203,1.12939.33203h7.04102c.53125,0,.79688-.26562.79688-.79688l.79736-33.61084c0-1.23926-.5542-2.2793-1.66064-3.12207-1.1084-.84082-3.43311-1.26221-6.97461-1.26221-1.06299.35498-1.59424.88623-1.59424,1.59424v36.13477c0,.26611.15381.51074.46484.73096Z"/>
    <path class="cls-1" d="M825.5708,222.06201h-5.8457l-4.78223-35.33789-10.62793,5.04834-2.92285,30.28955h-8.23682l5.97852-94.32275h20.98975l5.44727,94.32275ZM812.41846,133.31885l-5.7124,1.32861c-.53125.26562-.79736.70996-.79736,1.32861v46.7627c0,.44434.26611.66406.79736.66406l4.91553-.79688c.53125,0,.79688-.26562.79688-.79736l.79736-47.69287c0-.53125-.26611-.79688-.79736-.79688Z"/>
    <path class="cls-1" d="M440.05469,378.82422h-28.29688l-5.44678-5.5791,2.65723-78.51465c.08691-1.94678.90674-3.69678,2.45752-5.24756,1.54834-1.54834,3.69678-2.32471,6.44336-2.32471l1.72705.13281,20.4585,2.65674-2.12549,21.38916h-6.11133v-12.35498c0-.79736-.53125-1.1958-1.59375-1.1958h-8.23682c-1.68359,0-2.90186.68701-3.65332,2.05908-.75342,1.37402-1.12939,2.90186-1.12939,4.5835,0,.97559.13281,1.55029.39844,1.72705v62.17334c-.26562.08984-.39844.22266-.39844.39844,0,.26562.39844.39941,1.1958.39941h13.15186c1.06299,0,1.59424-.2666,1.59424-.79785v-9.96436l2.52441-1.59375,4.38379-.13281v22.18604Z"/>
    <path class="cls-1" d="M462.63916,288.48682l-2.79004,84.7583,11.15967-.79785v-82.2334l9.29932.53125v93.39355h-30.55518l3.05518-95.65186h9.83105Z"/>
    <path class="cls-1" d="M499.83496,381.48145h-7.70508v-88.87646l-2.92285-1.59424v-3.85254h20.72461c3.36475,0,6.17725.64355,8.43604,1.92627,2.2583,1.28467,3.43115,2.8125,3.52002,4.5835l-1.32812,36.79932c0,1.32812-.59814,2.94531-1.79346,4.84863-1.1958,1.90527-3.3877,3.30078-6.57617,4.18457l7.83789,14.61328,2.79004,27.36768-9.69775.39844-2.12598-26.03857-7.30664-15.67676h-3.85254v41.31689ZM502.15967,331.33057c.30957.22168.68506.33203,1.12939.33203h7.04102c.53125,0,.79688-.26562.79688-.79688l.79736-33.61084c0-1.23926-.5542-2.2793-1.66064-3.12207-1.1084-.84082-3.43311-1.26221-6.97461-1.26221-1.06299.35498-1.59424.88623-1.59424,1.59424v36.13525c0,.26562.15381.51074.46484.73047Z"/>
    <path class="cls-1" d="M544.33691,381.48145h-9.83057v-81.83545l-2.3916-6.37695v-6.11084h13.41797l-1.1958,94.32324Z"/>
    <path class="cls-1" d="M567.71777,381.48145c-3.63232,0-6.15674-.5752-7.57227-1.72656-1.41797-1.15039-2.12549-3.05566-2.12549-5.71289v-83.69531c1.94678-1.06299,4.49365-1.85986,7.63867-2.3916,3.14258-.53125,7.32764-.79688,12.5542-.79688,2.39111,0,4.33838.59766,5.84521,1.79346,1.50488,1.1958,2.25879,2.72314,2.25879,4.58301l-.93018,87.94678h-17.66895ZM575.95459,373.90918l1.19531-1.19531.79736-75.85791c0-.44189-.39844-.70752-1.1958-.79688l-8.23633-.39844-1.1958.79688-.79736,76.65479,9.43262.79688Z"/>
    <path class="cls-1" d="M619.79395,305.88965l-2.65674-10.36182-7.97119.92969-1.99268,29.49219,19.26318,3.4541-1.85986,44.10693c0,1.77246-1.15234,3.54297-3.4541,5.31348-2.3042,1.77344-4.42969,2.65723-6.37695,2.65723h-15.54297l-1.1958-22.71729h7.83789l-.13281,11.55811,9.29932,2.125,2.12598-35.3374-17.93457-3.98633v-42.77686l5.31396-3.18848h20.85693l-.66406,18.73145h-4.91553Z"/>
    <path class="cls-1" d="M647.82324,381.48145h-9.83057v-81.83545l-2.3916-6.37695v-6.11084h13.41797l-1.1958,94.32324Z"/>
    <path class="cls-1" d="M687.34521,291.27637c2.70068,2.74658,4.05176,6.24414,4.05176,10.49512l-3.98535,72.1377-8.10352,7.57227h-17.66895v-94.32324h15.27734c4.25146,0,7.72607,1.37402,10.42871,4.11816ZM678.37793,295.92627h-5.97803c-.26562,0-.53174.08936-.79736.26562-.26562.17871-.39844.35498-.39844.53125v75.19287l1.1958.79785,4.91553-.66504c.79688-.53125,1.19531-1.10645,1.19531-1.72656l1.46143-73.59912c0-.53125-.53125-.79688-1.59424-.79688Z"/>
    <path class="cls-1" d="M732.97852,381.48145h-5.8457l-4.78223-35.33838-10.62793,5.04785-2.92285,30.29053h-8.23682l5.97852-94.32324h20.98975l5.44727,94.32324ZM719.82617,292.73779l-5.7124,1.32861c-.53125.26562-.79736.70996-.79736,1.32861v46.7627c0,.44434.26611.66406.79736.66406l4.91553-.79688c.53125,0,.79688-.26562.79688-.79688l.79736-47.69336c0-.53125-.26611-.79688-.79736-.79688Z"/>
    <path class="cls-1" d="M774.9585,291.40918v82.63281c0,2.92285-.92969,4.89453-2.78955,5.91211-1.85986,1.01855-3.54346,1.52734-5.04834,1.52734h-22.31885v-7.43945l.79736-3.71973-2.79004-83.16406h21.91992l10.22949,4.25098ZM762.73633,370.7207c.70801-1.0625,1.1499-3.27539,1.32861-6.64258l2.65723-67.35498c0-.53125-.08936-.86328-.26611-.99609-.17822-.13281-.48779-.19922-.92969-.19922h-10.09668c-.79688,0-1.1958.39844-1.1958,1.19531v74.396c0,.79688.39893,1.19531,1.1958,1.19531h4.25146c1.32812,0,2.34521-.53125,3.05518-1.59375Z"/>
    <path class="cls-1" d="M818.93066,378.82422h-31.21973l3.05566-91.66602h26.96826v10.3623h-18.99707v27.3667h14.48047v6.64258l-13.81641,2.3916v33.87646l17.93457-2.3916,1.59424,13.41797Z"/>
  </g>
  <text class="cls-2" transform="translate(389.552 812.41072)"><tspan x="0" y="0">Bazeado no conto de Luiz Moreira</tspan></text>
</svg>